PathFileType	4	(x/y/z)	S01_M20_T04.trc
DataRate	CameraRate	NumFrames	NumMarkers	Units	OrigDataRate	OrigDataStartFrame	OrigNumFrames
240	240	10	51	mm	240	1	720
Frame#	Time	Sternum			R.Acromium			L.Acromium			Top.Head			R.ASIS			L.ASIS			R.PSIS			L.PSIS			R.Great.Tro			L.Great.Tro			R.Iliac.Crest			L.Iliac.Crest			V.Sacral			R.Thigh.Upper.Post			R.Thigh.Lower.Ant			R.Thigh.Lower.Post			R.Thigh.Upper.Ant			R.Knee.Lat			R.Knee.Med			R.Shank.Upper.Post			R.Shank.Lower.Ant			R.Shank.Lower.Post			R.Shank.Upper.Ant			R.Ankle.Lat			R.Ankle.Med			R.Heel.Upper			R.Heel.Med			R.Heel.Lat			R.Toe.Lat			R.Toe.Med			R.Toe.Tip			L.Thigh.Upper.Post			L.Thigh.Lower.Ant			L.Thigh.Lower.Post			L.Thigh.Upper.Ant			L.Knee.Lat			L.Knee.Med			L.Shank.Upper.Post			L.Shank.Lower.Ant			L.Shank.Lower.Post			L.Shank.Upper.Ant			L.Ankle.Lat			L.Ankle.Med			L.Heel.Upper			L.Heel.Med			L.Heel.Lat			L.Toe.Lat			L.Toe.Med			L.Toe.Tip			Cervical.Spine			Back			
		X1	Y1	Z1	X2	Y2	Z2	X3	Y3	Z3	X4	Y4	Z4	X5	Y5	Z5	X6	Y6	Z6	X7	Y7	Z7	X8	Y8	Z8	X9	Y9	Z9	X10	Y10	Z10	X11	Y11	Z11	X12	Y12	Z12	X13	Y13	Z13	X14	Y14	Z14	X15	Y15	Z15	X16	Y16	Z16	X17	Y17	Z17	X18	Y18	Z18	X19	Y19	Z19	X20	Y20	Z20	X21	Y21	Z21	X22	Y22	Z22	X23	Y23	Z23	X24	Y24	Z24	X25	Y25	Z25	X26	Y26	Z26	X27	Y27	Z27	X28	Y28	Z28	X29	Y29	Z29	X30	Y30	Z30	X31	Y31	Z31	X32	Y32	Z32	X33	Y33	Z33	X34	Y34	Z34	X35	Y35	Z35	X36	Y36	Z36	X37	Y37	Z37	X38	Y38	Z38	X39	Y39	Z39	X40	Y40	Z40	X41	Y41	Z41	X42	Y42	Z42	X43	Y43	Z43	X44	Y44	Z44	X45	Y45	Z45	X46	Y46	Z46	X47	Y47	Z47	X48	Y48	Z48	X49	Y49	Z49	X50	Y50	Z50	X51	Y51	Z51	

1	0	NaN	NaN	NaN	-997.29	1537.3	534.29	-1061.7	1574.9	214.49	-1062.2	1868.8	388.43	-952.51	1029.7	474.51	-978.86	1046.9	210.6	-1198.4	1093.8	404.93	-1211.6	1092.2	302.73	-1030.3	982.96	557.47	-1087.1	1004.9	136.17	-1024.6	1129.9	554.08	-1094.6	1139.1	152.37	-1221.7	1058	352.82	-1071.1	680.5	524.43	-1008	604.16	492.28	-1075.6	594.16	503.5	-999.8	693.07	514.46	-1064.7	527.74	492.76	-1062.2	532.83	348.7	-1143.8	375.45	507.62	-1094.1	287.17	463.07	-1157.4	306.99	494.13	-1084.6	357.23	483.31	-1182.3	106.11	447.59	-1146.5	113.58	356.11	-1250.1	80.691	385.21	-1234.3	51.36	356.84	-1243.2	48.898	420.5	-1056.3	35.085	488.46	-1018	41.912	363.88	-956.64	55.018	421.6	-1004.9	721.81	136.97	-900.82	687.37	117.8	-960.29	642.31	146.83	-954.99	766.22	109.5	-887.28	583.19	124.07	-837.97	588.64	264.44	-947.62	454.48	112.07	-894.55	358.42	132.37	NaN	NaN	NaN	-885.45	435.06	121.49	-992.4	165.58	156.08	-951.1	175.3	249.42	-1062.3	142.02	212.94	-1045.7	115.55	245.5	-1058.2	114.05	184.13	-858.19	79.708	122.92	-814.26	90.171	237.94	-758.9	96.099	177.86	-1115.6	1609.7	397.54	-1207.9	1304.2	400.57
2	0.0041667	NaN	NaN	NaN	-993.42	1536.9	534.09	-1057.6	1574.4	214.19	-1058.5	1868.4	387.99	-948.92	1029.3	474.51	-975.03	1046.3	210.59	-1194.7	1093.6	404.67	-1208.1	1091.9	302.4	-1026.9	982.59	557.42	-1083.2	1004.4	136.05	-1020.9	1129.6	553.98	-1090.6	1138.5	152.14	-1217.9	1057.7	352.57	-1069	680.4	524.3	-1006.4	603.73	492.1	-1074	594.11	503.43	-997.65	692.61	514.2	-1063.6	527.59	492.72	-1061.3	532.65	348.55	-1143.2	375.5	507.57	-1093.7	287.13	463.05	-1156.9	307.12	494.1	-1084	357.19	483.3	-1182.2	106.19	447.52	-1146.4	113.61	356.05	-1250.1	80.78	385.11	-1234.2	51.381	356.74	-1243.1	49.005	420.44	-1056.3	35.07	488.47	-1018	41.897	363.85	-956.59	54.926	421.64	-1001	721.24	137.45	-896.9	686.86	118.35	-956.31	641.8	147.51	-951.14	765.62	109.81	-882.93	582.84	124.87	-833.77	588.57	265.28	-941.17	453.28	112.6	-886.63	358.01	132.54	NaN	NaN	NaN	-878.75	434.87	121.92	-980.66	163.72	155.65	-939.5	173.93	249	-1049.7	138.66	212.45	-1032.8	112.52	244.88	-1045.4	111.03	183.57	-845.05	80.458	122.25	-801.32	91.312	237.31	-746.12	98.427	177.25	-1111.8	1609.4	397.18	-1204.2	1303.9	400.28
3	0.0083333	NaN	NaN	NaN	-989.39	1536.5	533.88	-1053.3	1573.9	213.88	-1054.6	1868.1	387.52	-945.17	1028.9	474.52	-971.02	1045.6	210.57	-1190.9	1093.3	404.4	-1204.3	1091.7	302.07	-1023.3	982.2	557.37	-1079.1	1003.8	135.94	-1017.1	1129.2	553.88	-1086.4	1137.8	151.91	-1214	1057.4	352.31	-1066.8	680.29	524.17	-1004.6	603.28	491.9	-1072.4	594.05	503.36	-995.42	692.13	513.93	-1062.4	527.44	492.68	-1060.3	532.47	348.39	-1142.6	375.56	507.51	-1093.2	287.09	463.04	-1156.3	307.25	494.05	-1083.4	357.16	483.3	-1182.1	106.28	447.45	-1146.3	113.64	355.99	-1250	80.875	385.01	-1234.1	51.408	356.64	-1243.1	49.118	420.38	-1056.2	35.053	488.47	-1018.1	41.884	363.81	-956.53	54.829	421.69	-996.96	720.63	137.94	-892.83	686.31	118.93	-952.19	641.26	148.22	-947.13	764.98	110.12	-878.41	582.46	125.71	-829.42	588.47	266.17	-934.47	452.04	113.16	-878.36	357.63	132.7	NaN	NaN	NaN	-871.78	434.68	122.37	-968.46	161.84	155.22	-927.44	172.54	248.58	-1036.6	135.22	211.95	-1019.5	109.42	244.26	-1032.1	107.94	182.99	-831.41	81.291	121.58	-787.88	92.554	236.67	-732.87	100.9	176.64	-1107.8	1609	396.79	-1200.2	1303.5	399.97
4	0.0125	NaN	NaN	NaN	-985.22	1536.1	533.65	-1048.8	1573.3	213.55	-1050.5	1867.7	387.03	-941.28	1028.4	474.53	-966.86	1045	210.55	-1186.9	1093	404.12	-1200.4	1091.4	301.74	-1019.6	981.79	557.31	-1074.9	1003.3	135.82	-1013.2	1128.7	553.77	-1082.1	1137.2	151.67	-1209.9	1057	352.05	-1064.6	680.18	524.03	-1002.8	602.81	491.71	-1070.8	594	503.28	-993.1	691.63	513.65	-1061.2	527.27	492.64	-1059.2	532.29	348.22	-1141.9	375.63	507.45	-1092.8	287.05	463.03	-1155.8	307.4	494	-1082.7	357.13	483.3	-1182	106.37	447.38	-1146.2	113.67	355.94	-1250	80.977	384.9	-1234	51.442	356.54	-1243	49.238	420.31	-1056.2	35.034	488.46	-1018.2	41.872	363.78	-956.47	54.73	421.74	-992.8	719.98	138.45	-888.63	685.72	119.53	-947.95	640.68	148.94	-942.99	764.3	110.45	-873.76	582.04	126.58	-824.95	588.33	267.1	-927.55	450.74	113.73	-869.78	357.3	132.86	NaN	NaN	NaN	-864.61	434.47	122.85	-955.86	159.94	154.79	-915.01	171.16	248.17	-1023.1	131.73	211.46	-1005.7	106.28	243.63	-1018.4	104.82	182.41	-817.36	82.213	120.9	-774.06	93.9	236.02	-719.24	103.5	176.03	-1103.6	1608.7	396.39	-1196.1	1303.2	399.64
5	0.016667	NaN	NaN	NaN	-980.93	1535.6	533.4	-1044.2	1572.7	213.2	-1046.3	1867.3	386.52	-937.28	1027.9	474.55	-962.58	1044.3	210.53	-1182.8	1092.6	403.83	-1196.3	1091	301.4	-1015.8	981.36	557.26	-1070.6	1002.7	135.7	-1009.3	1128.3	553.66	-1077.6	1136.5	151.43	-1205.7	1056.6	351.78	-1062.2	680.07	523.88	-1001	602.32	491.51	-1069.1	593.94	503.2	-990.72	691.12	513.36	-1060	527.11	492.6	-1058.2	532.11	348.05	-1141.3	375.71	507.39	-1092.3	287.01	463.01	-1155.2	307.54	493.94	-1082	357.09	483.29	-1181.9	106.47	447.31	-1146	113.7	355.88	-1249.9	81.086	384.8	-1233.9	51.486	356.44	-1243	49.363	420.25	-1056.2	35.012	488.45	-1018.2	41.862	363.76	-956.41	54.628	421.79	-988.54	719.29	138.96	-884.33	685.08	120.14	-943.61	640.06	149.67	-938.75	763.58	110.78	-869.01	581.58	127.47	-820.41	588.15	268.07	-920.48	449.41	114.32	-860.95	357.01	133.02	NaN	NaN	NaN	-857.28	434.26	123.33	-942.96	158.05	154.37	-902.27	169.8	247.77	-1009.3	128.24	210.97	-991.57	103.13	243.01	-1004.3	101.68	181.82	-803	83.229	120.22	-759.93	95.352	235.38	-705.33	106.23	175.43	-1099.3	1608.3	395.96	-1191.9	1302.8	399.29
6	0.020833	NaN	NaN	NaN	-976.54	1535.1	533.14	-1039.6	1572.1	212.84	-1042	1866.8	385.99	-933.18	1027.5	474.57	-958.19	1043.6	210.5	-1178.7	1092.3	403.53	-1192.1	1090.7	301.06	-1011.9	980.91	557.21	-1066.2	1002.1	135.58	-1005.2	1127.9	553.55	-1073.1	1135.8	151.17	-1201.4	1056.2	351.51	-1059.8	679.95	523.72	-999.1	601.82	491.31	-1067.4	593.88	503.12	-988.29	690.59	513.06	-1058.7	526.94	492.56	-1057	531.93	347.88	-1140.6	375.79	507.33	-1091.8	286.96	462.99	-1154.7	307.7	493.87	-1081.4	357.05	483.28	-1181.8	106.56	447.24	-1145.9	113.73	355.83	-1249.9	81.201	384.69	-1233.8	51.539	356.35	-1242.9	49.494	420.18	-1056.2	34.988	488.44	-1018.2	41.855	363.74	-956.34	54.524	421.85	-984.21	718.56	139.47	-879.96	684.39	120.76	-939.2	639.4	150.42	-934.44	762.81	111.11	-864.18	581.08	128.38	-815.81	587.92	269.08	-913.27	448.04	114.93	-851.93	356.78	133.17	NaN	NaN	NaN	-849.83	434.04	123.84	-929.83	156.19	153.96	-889.32	168.48	247.39	-995.2	124.77	210.5	-977.18	100.01	242.4	-990	98.573	181.25	-788.41	84.344	119.57	-745.6	96.914	234.76	-691.23	109.09	174.85	-1094.9	1607.8	395.52	-1187.6	1302.4	398.93
7	0.025	NaN	NaN	NaN	-972.08	1534.6	532.85	-1034.8	1571.5	212.45	-1037.6	1866.3	385.43	-929	1026.9	474.6	-953.71	1042.8	210.46	-1174.4	1091.9	403.23	-1187.8	1090.2	300.73	-1007.9	980.45	557.15	-1061.7	1001.4	135.45	-1001.1	1127.4	553.43	-1068.5	1135	150.91	-1197	1055.7	351.23	-1057.4	679.82	523.56	-997.19	601.31	491.11	-1065.6	593.82	503.04	-985.81	690.05	512.76	-1057.5	526.76	492.52	-1055.8	531.76	347.71	-1139.9	375.87	507.27	-1091.4	286.92	462.97	-1154.1	307.86	493.8	-1080.7	357.01	483.26	-1181.6	106.66	447.16	-1145.7	113.77	355.78	-1249.8	81.324	384.58	-1233.7	51.603	356.25	-1242.9	49.63	420.11	-1056.1	34.961	488.41	-1018.2	41.851	363.72	-956.26	54.418	421.91	-979.83	717.79	139.97	-875.54	683.66	121.38	-934.75	638.69	151.16	-930.06	762.01	111.45	-859.3	580.54	129.3	-811.18	587.64	270.11	-905.98	446.64	115.54	-842.78	356.6	133.33	NaN	NaN	NaN	-842.29	433.82	124.35	-916.54	154.38	153.56	-876.21	167.21	247.04	-980.94	121.36	210.04	-962.61	96.937	241.8	-975.47	95.511	180.68	-773.68	85.562	118.93	-731.14	98.587	234.16	-677.03	112.07	174.3	-1090.4	1607.4	395.05	-1183.2	1301.9	398.54
8	0.029167	NaN	NaN	NaN	-967.56	1534	532.54	-1030	1570.8	212.05	-1033.1	1865.8	384.85	-924.75	1026.4	474.63	-949.15	1042.1	210.42	-1170.1	1091.5	402.92	-1183.3	1089.7	300.4	-1003.9	979.97	557.1	-1057.1	1000.7	135.33	-997.03	1127	553.31	-1063.8	1134.2	150.65	-1192.6	1055.2	350.95	-1054.9	679.69	523.38	-995.24	600.79	490.91	-1063.7	593.75	502.96	-983.3	689.5	512.46	-1056.1	526.58	492.48	-1054.6	531.58	347.53	-1139.2	375.97	507.2	-1090.9	286.87	462.94	-1153.6	308.02	493.72	-1080	356.96	483.25	-1181.5	106.76	447.09	-1145.6	113.8	355.73	-1249.8	81.454	384.48	-1233.6	51.677	356.16	-1242.8	49.772	420.05	-1056.1	34.93	488.38	-1018.2	41.85	363.71	-956.18	54.31	421.97	-975.41	716.98	140.47	-871.08	682.88	122.01	-930.27	637.95	151.9	-925.63	761.16	111.79	-854.39	579.96	130.23	-806.56	587.31	271.18	-898.64	445.22	116.16	-833.53	356.46	133.49	NaN	NaN	NaN	-834.72	433.59	124.88	-903.14	152.63	153.2	-863.02	166.01	246.72	-966.57	118.02	209.6	-947.91	93.939	241.23	-960.81	92.52	180.13	-758.88	86.886	118.33	-716.63	100.37	233.59	-662.79	115.15	173.8	-1085.9	1606.9	394.57	-1178.7	1301.5	398.14
9	0.033333	NaN	NaN	NaN	-962.99	1533.5	532.22	-1025.1	1570.1	211.62	-1028.5	1865.2	384.26	-920.46	1025.9	474.67	-944.54	1041.3	210.38	-1165.7	1091.1	402.61	-1178.7	1089.2	300.07	-999.77	979.47	557.04	-1052.5	1000	135.2	-992.91	1126.5	553.19	-1059.1	1133.4	150.39	-1188	1054.7	350.67	-1052.4	679.56	523.2	-993.27	600.26	490.72	-1061.8	593.67	502.88	-980.76	688.95	512.16	-1054.8	526.4	492.43	-1053.4	531.41	347.36	-1138.5	376.06	507.14	-1090.4	286.83	462.92	-1153	308.2	493.64	-1079.3	356.91	483.22	-1181.4	106.86	447.01	-1145.4	113.83	355.68	-1249.7	81.591	384.37	-1233.5	51.762	356.07	-1242.8	49.919	419.98	-1056	34.897	488.34	-1018.2	41.854	363.71	-956.09	54.2	422.04	-970.98	716.13	140.95	-866.61	682.05	122.63	-925.78	637.17	152.64	-921.18	760.26	112.12	-849.48	579.33	131.16	-801.95	586.91	272.26	-891.27	443.79	116.79	-824.25	356.37	133.66	-885.05	365.37	120.18	-827.13	433.35	125.41	-889.69	150.96	152.85	-849.8	164.88	246.43	-952.15	114.78	209.18	-933.16	91.033	240.68	-946.08	89.619	179.6	-744.07	88.315	117.77	-702.13	102.27	233.07	-648.58	118.35	173.35	-1081.3	1606.4	394.06	-1174.2	1301	397.72
10	0.0375	NaN	NaN	NaN	-958.39	1532.9	531.86	-1020.2	1569.4	211.18	-1023.9	1864.6	383.64	-916.12	1025.3	474.7	-939.88	1040.5	210.33	-1161.3	1090.6	402.29	-1174	1088.6	299.76	-995.63	978.95	556.98	-1047.8	999.26	135.07	-988.79	1126	553.07	-1054.4	1132.6	150.12	-1183.5	1054.2	350.39	-1049.9	679.42	523.02	-991.28	599.73	490.53	-1059.9	593.58	502.81	-978.19	688.38	511.85	-1053.5	526.22	492.39	-1052.1	531.24	347.19	-1137.8	376.17	507.07	-1089.9	286.79	462.89	-1152.4	308.37	493.54	-1078.6	356.86	483.19	-1181.3	106.97	446.94	-1145.3	113.87	355.64	-1249.7	81.737	384.26	-1233.4	51.858	355.98	-1242.7	50.071	419.91	-1056	34.859	488.29	-1018.2	41.861	363.71	-956	54.088	422.11	-966.53	715.24	141.42	-862.12	681.17	123.25	-921.3	636.34	153.36	-916.72	759.33	112.45	-844.57	578.66	132.08	-797.37	586.46	273.36	-883.9	442.34	117.41	-814.98	356.31	133.84	-877.51	364.17	120.41	-819.55	433.12	125.95	-876.24	149.37	152.54	-836.59	163.84	246.18	-937.73	111.65	208.79	-918.41	88.237	240.17	-931.33	86.824	179.09	-729.31	89.851	117.27	-687.7	104.28	232.6	-634.46	121.64	172.97	-1076.6	1605.9	393.54	-1169.6	1300.5	397.28
